<?xml version="1.0" encoding="utf-8"?>
<!-- Svg Vector Icons : http://www.onlinewebfonts.com/icon -->
<!DOCTYPE svg PUBLIC "-//W3C//DTD SVG 1.1//EN" "http://www.w3.org/Graphics/SVG/1.1/DTD/svg11.dtd">
<svg version="1.1" xmlns="http://www.w3.org/2000/svg" xmlns:xlink="http://www.w3.org/1999/xlink" x="0px" y="0px" viewBox="0 0 256 256" enable-background="new 0 0 256 256" xml:space="preserve">
<metadata> Svg Vector Icons : http://www.onlinewebfonts.com/icon </metadata>
<g><g><g><path fill="#000000" d="M117.5,10.4c-35.6,3.2-68,22.7-88.3,53C25.5,69,19.5,80.9,17,87.6c-5.4,14.6-7.9,32.4-6.8,47.9c1.7,23.9,9.4,44.6,23.5,63.5c24,32.1,64.3,50.1,103.9,46.6c28.6-2.6,53.4-14.1,73.6-34.3c20.4-20.4,31.9-45.3,34.4-74.4c1.3-15.5-1.3-34.6-6.7-49.3c-2.1-5.8-7.7-17.3-10.7-21.9c-9.7-15.2-23.9-29.3-38.8-38.4C168.2,14.2,142.4,8.2,117.5,10.4z M138.2,25.1c19.8,2,39,9.9,54.6,22.5c27.5,22.1,41.9,57.2,37.8,92c-2.4,20.8-10.5,39.3-24.4,55.8l-1,1.3l-2.1-1.4c-5.4-3.6-13.3-6.9-25.1-10.6c-7.2-2.2-18.2-5.7-19.7-6.2c-0.5-0.2-0.6,0.9-0.5,5.6c0.2,7.8-0.5,11.2-4,18.3c-5.2,10.7-11.5,19.3-19.1,26l-3.3,2.9H128h-3.5l-3.2-2.8c-7.2-6.2-14.2-15.7-19.1-25.8c-3.6-7.4-4.3-10.7-4.1-18.5c0.1-5.1,0-5.8-0.6-5.6c-1.8,0.7-6.7,2.2-16.5,5.3c-15.4,4.7-22.4,7.6-28.2,11.5l-2.1,1.4l-1-1.3c-3.4-4-8.1-10.6-10.4-14.5c-21.5-36.1-19.1-81,6-115C49.7,60,60,49.7,66,45.3c15.7-11.6,34.2-18.7,53-20.3C123.3,24.6,133.8,24.7,138.2,25.1z"/><path fill="#000000" d="M121.8,47.1c-7.5,0.9-13.5,2.6-19.1,5.4C90.9,58.5,84,67.4,81.9,79.9c-0.9,5.3-0.6,18.5,0.7,25.8c0.3,1.4,0.2,1.5-1,1.5c-1.7,0-4.2,2.5-4.8,4.8c-1.5,5.6,1.1,14.8,5.5,19.6c1,1.1,3,4.4,4.5,7.3c10.4,20.7,22,31,37,32.9c7.5,0.9,15.5-0.8,22-4.7c8.6-5.2,15.9-13.9,22.7-27.3c1.8-3.4,4-7.1,5-8.2c5-5.4,7.5-16.3,4.9-21.3c-0.9-1.8-2.9-3.3-4.2-3.3c-0.6,0-1.1,0-1.1-0.1c0,0,0.3-2.4,0.7-5.2c0.8-5.9,0.9-17.6,0.2-21.9c-2-12.4-9-21.5-21-27.5c-5.5-2.7-11.5-4.5-17.8-5.3C131.7,46.8,124.8,46.7,121.8,47.1z M111.3,78.7c12.3,11.3,27.4,16.7,50.5,18.2l4.9,0.3v1.4c0,2.1-1.3,10.6-2.4,15.2c-0.5,2.2-0.9,4.2-0.9,4.4c0,0.2,0.8-1.2,1.8-3c2-4.1,3.6-5.5,5.4-4.8c4.2,1.9,3,12-1.9,17.3c-1.5,1.6-3.2,4.6-5.9,10.1c-4.9,10-8.1,14.9-12.8,19.6c-6.4,6.3-12.2,8.5-22,8.5s-15.6-2.3-22-8.5c-4.7-4.6-7.9-9.5-12.8-19.6c-2.7-5.5-4.4-8.5-5.9-10.1c-4.9-5.3-6.1-15.4-1.9-17.3c1.7-0.8,3.3,0.6,5.4,4.8c1,1.9,1.7,2.9,1.5,2.3c-1.4-5.7-2.7-14.6-2.9-19.4c-0.2-5.3-0.2-5.9,0.8-7.8c2.5-5,6.1-9,10.4-11.8c1.4-0.9,5.9-2.4,7.1-2.5C108,75.9,109.6,77.1,111.3,78.7z"/><path fill="#000000" d="M119.8,181.4c-3,2.4-3.5,3.1-3.1,4.2c0.4,1.3,2.8,3.9,5.4,6l2.2,1.7l-3.9,9.3c-2.1,5.2-3.9,9.6-3.9,9.9c0,1.2,4.5,6.1,7.9,8.7l3.6,2.7l2.6-2c3.2-2.5,8.9-8.4,8.9-9.3c0-0.4-1.8-4.8-3.9-10l-3.8-9.3l3.6-3.5c2-1.9,3.7-3.9,3.9-4.4c0.3-1-0.9-2.5-3.7-4.6c-1.8-1.3-1.9-1.3-7.7-1.3h-5.9L119.8,181.4z"/></g></g></g>
</svg>